{
  "accessors": [
    {
      "bufferView": 2,
      "componentType": 5126,
      "count": 9084,
      "max": [
        3.7429978847503662,
        2.5219480991363525,
        1.2237670421600342
      ],
      "min": [
        -2.3024361133575439,
        -2.3391690254211426,
        -1.1697579622268677
      ],
      "type": "VEC3"
    },
    {
      "bufferView": 2,
      "byteOffset": 109008,
      "componentType": 5126,
      "count": 9084,
      "max": [
        0.99999940395355225,
        1,
        0.99998670816421509
      ],
      "min": [
        -0.99946188926696777,
        -1,
        -0.99998670816421509
      ],
      "type": "VEC3"
    },
    {
      "bufferView": 1,
      "componentType": 5126,
      "count": 9084,
      "max": [
        0.87234067916870117,
        0.9600871205329895
      ],
      "min": [
        0.34360221028327942,
        0.044236540794372559
      ],
      "type": "VEC2"
    },
    {
      "bufferView": 0,
      "componentType": 5125,
      "count": 54408,
      "max": [
        9083
      ],
      "min": [
        0
      ],
      "type": "SCALAR"
    },
    {
      "bufferView": 2,
      "byteOffset": 218016,
      "componentType": 5126,
      "count": 964,
      "max": [
        1.3485499620437622,
        1.483307957649231,
        0.71569579839706421
      ],
      "min": [
        -1.3473409414291382,
        -1.4833400249481201,
        -0.71445411443710327
      ],
      "type": "VEC3"
    },
    {
      "bufferView": 2,
      "byteOffset": 229584,
      "componentType": 5126,
      "count": 964,
      "max": [
        1,
        1,
        1
      ],
      "min": [
        -1,
        -1,
        -1
      ],
      "type": "VEC3"
    },
    {
      "bufferView": 1,
      "byteOffset": 72672,
      "componentType": 5126,
      "count": 964,
      "max": [
        0.20207050442695618,
        0.62763649225234985
      ],
      "min": [
        0.16902069747447968,
        0.5559656023979187
      ],
      "type": "VEC2"
    },
    {
      "bufferView": 0,
      "byteOffset": 217632,
      "componentType": 5125,
      "count": 5760,
      "max": [
        963
      ],
      "min": [
        0
      ],
      "type": "SCALAR"
    },
    {
      "bufferView": 2,
      "byteOffset": 241152,
      "componentType": 5126,
      "count": 6589,
      "max": [
        2.2859969139099121,
        1.3920559883117676,
        1.2033209800720215
      ],
      "min": [
        -1.6850219964981079,
        -1.3193789720535278,
        -1.2033319473266602
      ],
      "type": "VEC3"
    },
    {
      "bufferView": 2,
      "byteOffset": 320220,
      "componentType": 5126,
      "count": 6589,
      "max": [
        0.95491182804107666,
        0.999969482421875,
        0.99914121627807617
      ],
      "min": [
        -0.99985402822494507,
        -0.99999058246612549,
        -0.99913972616195679
      ],
      "type": "VEC3"
    },
    {
      "bufferView": 1,
      "byteOffset": 80384,
      "componentType": 5126,
      "count": 6589,
      "max": [
        0.52508687973022461,
        0.84050822257995605
      ],
      "min": [
        0.1176702007651329,
        0.3437345027923584
      ],
      "type": "VEC2"
    },
    {
      "bufferView": 0,
      "byteOffset": 240672,
      "componentType": 5125,
      "count": 39522,
      "max": [
        6588
      ],
      "min": [
        0
      ],
      "type": "SCALAR"
    }
  ],
  "asset": {
    "extras": {
      "author": "mellydeeis (https://sketchfab.com/mellydeeis)",
      "license": "CC-BY-4.0 (http://creativecommons.org/licenses/by/4.0/)",
      "source": "https://sketchfab.com/3d-models/gold-fish-65791921d02c48ec83b924a17ae2b3d3",
      "title": "Gold fish"
    },
    "generator": "Sketchfab-7.44.0",
    "version": "2.0"
  },
  "bufferViews": [
    {
      "buffer": 0,
      "byteLength": 398760,
      "byteOffset": 0,
      "name": "floatBufferViews",
      "target": 34963
    },
    {
      "buffer": 0,
      "byteLength": 133096,
      "byteOffset": 398760,
      "byteStride": 8,
      "name": "floatBufferViews",
      "target": 34962
    },
    {
      "buffer": 0,
      "byteLength": 399288,
      "byteOffset": 531856,
      "byteStride": 12,
      "name": "floatBufferViews",
      "target": 34962
    }
  ],
  "buffers": [
    {
      "byteLength": 931144,
      "uri": "scene.bin"
    }
  ],
  "images": [
    {
      "uri": "textures/Material_baseColor.jpeg"
    },
    {
      "uri": "textures/Material_metallicRoughness.png"
    },
    {
      "uri": "textures/Material_003_metallicRoughness.png"
    }
  ],
  "materials": [
    {
      "doubleSided": true,
      "emissiveFactor": [
        0,
        0,
        0
      ],
      "name": "Material",
      "pbrMetallicRoughness": {
        "baseColorFactor": [
          1,
          1,
          1,
          1
        ],
        "baseColorTexture": {
          "index": 0,
          "texCoord": 0
        },
        "metallicFactor": 0,
        "metallicRoughnessTexture": {
          "index": 1,
          "texCoord": 0
        },
        "roughnessFactor": 1
      }
    },
    {
      "doubleSided": true,
      "emissiveFactor": [
        0,
        0,
        0
      ],
      "name": "Material_003",
      "pbrMetallicRoughness": {
        "baseColorFactor": [
          1,
          1,
          1,
          1
        ],
        "baseColorTexture": {
          "index": 0,
          "texCoord": 0
        },
        "metallicFactor": 0,
        "metallicRoughnessTexture": {
          "index": 2,
          "texCoord": 0
        },
        "roughnessFactor": 0
      }
    },
    {
      "doubleSided": true,
      "emissiveFactor": [
        1,
        1,
        1
      ],
      "emissiveTexture": {
        "index": 0,
        "texCoord": 0
      },
      "name": "Material_001",
      "pbrMetallicRoughness": {
        "baseColorFactor": [
          1,
          1,
          1,
          1
        ],
        "baseColorTexture": {
          "index": 0,
          "texCoord": 0
        },
        "metallicFactor": 1,
        "metallicRoughnessTexture": {
          "index": 1,
          "texCoord": 0
        },
        "roughnessFactor": 1
      }
    }
  ],
  "meshes": [
    {
      "name": "Material_001-material",
      "primitives": [
        {
          "attributes": {
            "NORMAL": 1,
            "POSITION": 0,
            "TEXCOORD_0": 2
          },
          "indices": 3,
          "material": 2,
          "mode": 4
        }
      ]
    },
    {
      "name": "Material_003-material",
      "primitives": [
        {
          "attributes": {
            "NORMAL": 5,
            "POSITION": 4,
            "TEXCOORD_0": 6
          },
          "indices": 7,
          "material": 1,
          "mode": 4
        }
      ]
    },
    {
      "name": "Material-material",
      "primitives": [
        {
          "attributes": {
            "NORMAL": 9,
            "POSITION": 8,
            "TEXCOORD_0": 10
          },
          "indices": 11,
          "material": 0,
          "mode": 4
        }
      ]
    }
  ],
  "nodes": [
    {
      "children": [
        1
      ],
      "name": "RootNode (gltf orientation matrix)",
      "rotation": [
        -0.70710678118654746,
        -0,
        -0,
        0.70710678118654757
      ]
    },
    {
      "children": [
        2
      ],
      "name": "RootNode (model correction matrix)"
    },
    {
      "children": [
        3,
        5,
        7
      ],
      "name": "Collada visual scene group"
    },
    {
      "children": [
        4
      ],
      "matrix": [
        1,
        0,
        0,
        0,
        0,
        -4.3711400000000002e-08,
        1,
        0,
        0,
        -1,
        -4.3711400000000002e-08,
        0,
        0.02777423,
        0.36115809999999998,
        -0.033637300000000002,
        1
      ],
      "name": "Plane_004"
    },
    {
      "mesh": 0,
      "name": "Material_001-material"
    },
    {
      "children": [
        6
      ],
      "matrix": [
        0.3109478,
        -0.2591909,
        -0.030724499999999998,
        0,
        0.25859110000000002,
        0.31241459999999999,
        -0.018443939999999999,
        0,
        0.035419489999999998,
        -0.0054436900000000002,
        0.40438629999999998,
        0,
        -3.1472850000000001,
        0.36856620000000001,
        0.56038399999999999,
        1
      ],
      "name": "Sphere"
    },
    {
      "mesh": 1,
      "name": "Material_003-material"
    },
    {
      "children": [
        8
      ],
      "matrix": [
        1,
        0,
        0,
        0,
        0,
        -4.3711400000000002e-08,
        1,
        0,
        0,
        -1,
        -4.3711400000000002e-08,
        0,
        -1.956871,
        0.362035,
        0.44935350000000002,
        1
      ],
      "name": "Plane"
    },
    {
      "mesh": 2,
      "name": "Material-material"
    }
  ],
  "samplers": [
    {
      "magFilter": 9729,
      "minFilter": 9987,
      "wrapS": 10497,
      "wrapT": 10497
    }
  ],
  "scene": 0,
  "scenes": [
    {
      "name": "OSG_Scene",
      "nodes": [
        0
      ]
    }
  ],
  "textures": [
    {
      "sampler": 0,
      "source": 0
    },
    {
      "sampler": 0,
      "source": 1
    },
    {
      "sampler": 0,
      "source": 2
    }
  ]
}

